<svg width="608" height="142" viewBox="0 0 608 142" fill="none" xmlns="http://www.w3.org/2000/svg">
<g clip-path="url(#clip0_108_2)">
<path d="M494.558 28V0H607.558V28H567.558V142H535.558V28H494.558Z" fill="#2442bd"/>
<path d="M437.558 0V113H493.558L493.558 142H405.558V0H437.558Z" fill="#2442bd"/>
<path d="M292.058 142H259.5L310.296 0H340.735L391.558 142H358.422L348.248 106.507H325.226H302.205L292.058 142ZM321.47 43.8681L308.259 85.3066H342.386L329.176 43.8681C327.634 39.0519 325.901 33.4651 325.323 29.9974C324.745 33.2724 323.204 38.6666 321.47 43.8681Z" fill="#2442bd"/>
<path d="M217.209 90.3738C210.784 78.6208 210.9 64.2729 217.518 52.3902C225.322 38.3794 234.74 21.1305 241.664 7.34936C241.779 7.12135 241.888 6.90935 242.002 6.69079C242.51 5.72358 243.813 3.23623 245.5 0H210.611C204.458 11.8892 196.957 25.5981 190.436 37.3062C178.738 58.3094 178.377 83.9677 190.008 105.244L210.102 142H245.418L241.647 135.076L217.209 90.3738Z" fill="#2442bd"/>
<path d="M132.836 90.3738C139.261 78.6208 139.145 64.273 132.527 52.3903C124.723 38.3794 115.305 21.1305 108.381 7.34938C108.266 7.12137 108.158 6.90937 108.043 6.69081C107.536 5.7236 106.232 3.23625 104.545 2.28882e-05H139.434C145.587 11.8892 153.088 25.5981 159.609 37.3062C171.307 58.3094 171.668 83.9677 160.037 105.244L139.943 142H104.628L108.399 135.076L132.836 90.3738Z" fill="#2442bd"/>
<path d="M90.5449 142H2.83495e-06L0 0H90.3788V27.8973H31.043V55.8313H83.6361V83.1875H31.043V112.663H90.3788L90.5449 142Z" fill="#2442bd"/>
</g>
<defs>
<clipPath id="clip0_108_2">
<rect width="608" height="142" fill="white"/>
</clipPath>
</defs>
</svg>
